<?xml version="1.0" encoding="UTF-8"?>
<svg width="256px" height="256px" viewBox="0 0 256 256" version="1.1" xmlns="http://www.w3.org/2000/svg" xmlns:xlink="http://www.w3.org/1999/xlink">
    <!-- Generator: Sketch 46 (44423) - http://www.bohemiancoding.com/sketch -->
    <title>Artboard</title>
    <desc>Created with Sketch.</desc>
    <defs>
        <rect id="path-1" x="0" y="0" width="256" height="256" rx="32"></rect>
    </defs>
    <g id="Page-1" stroke="none" stroke-width="1" fill="none" fill-rule="evenodd">
        <g id="Path-2">
            <mask id="mask-2" fill="white">
                <use xlink:href="#path-1"></use>
            </mask>
            <use id="Mask" fill="#A40A3C" xlink:href="#path-1"></use>
            <polygon fill="#6B0848" mask="url(#mask-2)" points="143 43 363 106 305 326 118 326 49 163 49 112 60 83 83 58"></polygon>
        </g>
        <g id="Artboard" fill="#FFC300">
            <path d="M128,214 C80.5035115,214 42,175.496488 42,128 C42,80.5035115 80.5035115,42 128,42 C175.496488,42 214,80.5035115 214,128 C214,175.496488 175.496488,214 128,214 Z M128,206 C171.07821,206 206,171.07821 206,128 C206,84.9217895 171.07821,50 128,50 C84.9217895,50 50,84.9217895 50,128 C50,171.07821 84.9217895,206 128,206 Z" id="Combined-Shape"></path>
            <path d="M179.5736,80.669041 C182.572199,83.9346959 185.264659,87.4859624 187.605491,91.2773529 L182.425626,94.2679492 C181.469041,94.8202339 181.14129,96.0434148 181.693575,97 C182.24586,97.9565852 183.469041,98.2843356 184.425626,97.7320508 L189.608709,94.7395965 C191.863616,98.907601 193.707902,103.330294 195.087341,107.953449 L189.301615,109.503729 C188.234683,109.789613 187.601518,110.886287 187.887401,111.953219 C188.173285,113.020151 189.269959,113.653316 190.336891,113.367433 L196.120185,111.817804 C197.053166,115.760097 197.652784,119.831298 197.887629,124 L186,124 C183.790861,124 182,125.790861 182,128 C182,130.209139 183.790861,132 186,132 L197.887629,132 C197.652784,136.168702 197.053166,140.239903 196.120185,144.182196 L190.336891,142.632567 C189.269959,142.346684 188.173285,142.979849 187.887401,144.046781 C187.601518,145.113713 188.234683,146.210387 189.301615,146.496271 L195.087341,148.046551 C193.707902,152.669706 191.863616,157.092399 189.608709,161.260403 L184.425626,158.267949 C183.469041,157.715664 182.24586,158.043415 181.693575,159 C181.14129,159.956585 181.469041,161.179766 182.425626,161.732051 L187.605491,164.722647 C185.264659,168.514038 182.572199,172.065304 179.5736,175.330959 L173.254834,169.012193 C172.083261,167.84062 170.183766,167.84062 169.012193,169.012193 C167.84062,170.183766 167.84062,172.083261 169.012193,173.254834 L175.330959,179.5736 C172.065304,182.572199 168.514038,185.264659 164.722647,187.605491 L161.732051,182.425626 C161.179766,181.469041 159.956585,181.14129 159,181.693575 C158.043415,182.24586 157.715664,183.469041 158.267949,184.425626 L161.260403,189.608709 C157.092399,191.863616 152.669706,193.707902 148.046551,195.087341 L146.496271,189.301615 C146.210387,188.234683 145.113713,187.601518 144.046781,187.887401 C142.979849,188.173285 142.346684,189.269959 142.632567,190.336891 L144.182196,196.120185 C140.239903,197.053166 136.168702,197.652784 132,197.887629 L132,186 C132,183.790861 130.209139,182 128,182 C125.790861,182 124,183.790861 124,186 L124,197.887629 C119.831298,197.652784 115.760097,197.053166 111.817804,196.120185 L113.367433,190.336891 C113.653316,189.269959 113.020151,188.173285 111.953219,187.887401 C110.886287,187.601518 109.789613,188.234683 109.503729,189.301615 L107.953449,195.087341 C103.330294,193.707902 98.907601,191.863616 94.7395965,189.608709 L97.7320508,184.425626 C98.2843356,183.469041 97.9565852,182.24586 97,181.693575 C96.0434148,181.14129 94.8202339,181.469041 94.2679492,182.425626 L91.2773529,187.605491 C87.4859624,185.264659 83.9346959,182.572199 80.669041,179.5736 L86.9878067,173.254834 C88.1593796,172.083261 88.1593796,170.183766 86.9878067,169.012193 C85.8162338,167.84062 83.9167389,167.84062 82.745166,169.012193 L76.4264003,175.330959 C73.4278007,172.065304 70.7353412,168.514038 68.3945094,164.722647 L73.5743742,161.732051 C74.5309594,161.179766 74.8587097,159.956585 74.306425,159 C73.7541402,158.043415 72.5309594,157.715664 71.5743742,158.267949 L66.3912913,161.260403 C64.1363844,157.092399 62.2920977,152.669706 60.9126588,148.046551 L66.6983852,146.496271 C67.7653174,146.210387 68.3984824,145.113713 68.1125988,144.046781 C67.8267151,142.979849 66.7300412,142.346684 65.663109,142.632567 L59.8798151,144.182196 C58.9468335,140.239903 58.3472164,136.168702 58.1123711,132 L70,132 C72.209139,132 74,130.209139 74,128 C74,125.790861 72.209139,124 70,124 L58.1123711,124 C58.3472164,119.831298 58.9468335,115.760097 59.8798151,111.817804 L65.663109,113.367433 C66.7300412,113.653316 67.8267151,113.020151 68.1125988,111.953219 C68.3984824,110.886287 67.7653174,109.789613 66.6983852,109.503729 L60.9126588,107.953449 C62.2920977,103.330294 64.1363844,98.907601 66.3912913,94.7395965 L71.5743742,97.7320508 C72.5309594,98.2843356 73.7541402,97.9565852 74.306425,97 C74.8587097,96.0434148 74.5309594,94.8202339 73.5743742,94.2679492 L68.3945094,91.2773529 C70.7353412,87.4859624 73.4278007,83.9346959 76.4264003,80.669041 L82.745166,86.9878067 C83.9167389,88.1593796 85.8162338,88.1593796 86.9878067,86.9878067 C88.1593796,85.8162338 88.1593796,83.9167389 86.9878067,82.745166 L80.669041,76.4264003 C83.9346959,73.4278007 87.4859624,70.7353412 91.2773529,68.3945094 L94.2679492,73.5743742 C94.8202339,74.5309594 96.0434148,74.8587097 97,74.306425 C97.9565852,73.7541402 98.2843356,72.5309594 97.7320508,71.5743742 L94.7395965,66.3912913 C98.907601,64.1363844 103.330294,62.2920977 107.953449,60.9126588 L109.503729,66.6983852 C109.789613,67.7653174 110.886287,68.3984824 111.953219,68.1125988 C113.020151,67.8267151 113.653316,66.7300412 113.367433,65.663109 L111.817804,59.8798151 C115.760097,58.9468335 119.831298,58.3472164 124,58.1123711 L124,70 C124,72.209139 125.790861,74 128,74 C130.209139,74 132,72.209139 132,70 L132,58.1123711 C136.168702,58.3472164 140.239903,58.9468335 144.182196,59.8798151 L142.632567,65.663109 C142.346684,66.7300412 142.979849,67.8267151 144.046781,68.1125988 C145.113713,68.3984824 146.210387,67.7653174 146.496271,66.6983852 L148.046551,60.9126588 C152.669706,62.2920977 157.092399,64.1363844 161.260403,66.3912913 L158.267949,71.5743742 C157.715664,72.5309594 158.043415,73.7541402 159,74.306425 C159.956585,74.8587097 161.179766,74.5309594 161.732051,73.5743742 L164.722647,68.3945094 C168.514038,70.7353412 172.065304,73.4278007 175.330959,76.4264003 L169.012193,82.745166 C167.84062,83.9167389 167.84062,85.8162338 169.012193,86.9878067 C170.183766,88.1593796 172.083261,88.1593796 173.254834,86.9878067 L179.5736,80.669041 Z M156.459861,145.032 L151.635861,141.36 C146.643836,147.168029 140.571897,150.072 133.419861,150.072 C128.379836,150.072 123.915881,148.728013 120.027861,146.04 C116.139842,143.351987 113.499868,140.064019 112.107861,136.176 L143.499861,136.176 L143.499861,130.416 L111.171861,130.416 L111.315861,125.88 L143.643861,125.88 L143.643861,120.12 L112.467861,120.12 C113.955869,116.471982 116.619842,113.328013 120.459861,110.688 C124.29988,108.047987 128.523838,106.728 133.131861,106.728 C140.475898,106.728 146.643836,109.75197 151.635861,115.8 L156.387861,112.128 C153.699848,108.383981 150.351881,105.54001 146.343861,103.596 C142.335841,101.65199 137.907885,100.68 133.059861,100.68 C126.435828,100.68 120.567887,102.539981 115.455861,106.26 C110.343836,109.980019 107.043869,114.599972 105.555861,120.12 L100.587861,120.12 L100.587861,125.88 L104.835861,125.88 L104.691861,130.416 L100.443861,130.416 L100.443861,136.176 L105.411861,136.176 C106.947869,141.936029 110.223836,146.675981 115.239861,150.396 C120.255886,154.116019 126.219827,155.976 133.131861,155.976 C143.019911,155.976 150.795833,152.328036 156.459861,145.032 Z" id="Combined-Shape"></path>
        </g>
    </g>
</svg>